# xmcd CD database file
#
# Track frame offsets:
#	150
#	15210
#	35876
#	46741
#	60062
#	73919
#	91728
#	107484
#	120117
#	139314
#	155367
#	164661
#	186600
#	210181
#	241230
#	253473
#	282733
#	299711
#	316147
#	327061
#
# Disc length: 4605 seconds
#
# Revision: 1
# Processed by: cddbd v1.5.2PL0 Copyright (c) Steve Scherf et al.
# Submitted via: CDex 1.51
#
DISCID=1f11fb14
DTITLE=Various Artist - Jazz Emotion - Piano
DYEAR=2008
DGENRE=Jazz
TTITLE0=Erroll Garner - Robbins' Nest   [1951]
TTITLE1=Ahmad Jamal - Poinciana   [1956]
TTITLE2=Count Basie - Shine On, Harvest Moon   [1947]
TTITLE3=Mary Lou Williams - Perdido   [1953]
TTITLE4=Oscar Peterson - Stairway To The Stars   [1976]
TTITLE5=Art Tatum - Isn't It Romantic   [1956]
TTITLE6=Thelonous Monk - Smoke Gets In Your Eyes   [1954]
TTITLE7=Bud Powell - Indiana   [1947]
TTITLE8=Lou Levy - Baubles, Bangles and Beads   [1957]
TTITLE9=Hank Jones - Now's The Time   [1955]
TTITLE10=Dave Brubeck - Unsquare Dance   [1961]
TTITLE11=Duke Ellington - Body And Soul   [1961]
TTITLE12=Bill Evans - Waltz For Debby   [1998]
TTITLE13=Keith Jarrett - The Magician In You   [1972]
TTITLE14=Jimmie Rowles - Venus De Milo   [1977]
TTITLE15=Paul Bley - As Time Goes By   [1998]
TTITLE16=Martial Solal - The Shadow Of Your Smile   [1998]
TTITLE17=Steve Kühn - Smile   [1998]
TTITLE18=Alain Jean-Marie - Somewhere   [1998]
TTITLE19=Stephan Oliva - Rosemary's Baby   [1998]
EXTD=YEAR: 2008
EXTT0=
EXTT1=
EXTT2=
EXTT3=
EXTT4=
EXTT5=
EXTT6=
EXTT7=
EXTT8=
EXTT9=
EXTT10=
EXTT11=
EXTT12=
EXTT13=
EXTT14=
EXTT15=
EXTT16=
EXTT17=
EXTT18=
EXTT19=
PLAYORDER=
